<?xml version="1.0" encoding="UTF-8" ?>
<!DOCTYPE svg PUBLIC "-//W3C//DTD SVG 1.1//EN" "http://www.w3.org/Graphics/SVG/1.1/DTD/svg11.dtd">
<svg width="400pt" height="300pt" viewBox="0 0 400 300" version="1.1" xmlns="http://www.w3.org/2000/svg">
<g id="#f25a29ff">
</g>
<g id="#f99d22ff">
<path fill="#f99d22" opacity="1.00" d=" M 183.40 24.01 C 184.07 25.61 184.55 27.28 184.95 28.96 C 187.42 39.29 190.58 49.46 192.91 59.81 C 189.79 60.94 186.55 61.73 183.29 62.30 C 183.50 49.54 183.04 36.76 183.40 24.01 Z" />
<path fill="#f99d22" opacity="1.00" d=" M 100.61 73.57 C 113.77 80.25 126.08 88.62 139.21 95.36 C 138.96 99.25 139.41 103.23 141.11 106.79 C 142.46 109.32 141.77 112.30 141.32 114.99 C 129.11 102.45 116.56 90.24 104.20 77.85 C 102.96 76.47 101.23 75.40 100.61 73.57 Z" />
<path fill="#f99d22" opacity="1.00" d=" M 84.12 101.92 C 85.52 101.50 86.90 102.40 88.27 102.63 C 105.77 107.51 123.35 112.07 140.84 116.95 C 139.12 121.88 140.14 127.20 142.12 131.88 C 139.87 136.90 139.77 142.63 140.65 147.98 C 141.74 151.75 142.96 155.55 142.72 159.52 C 137.02 158.62 130.96 161.44 128.54 166.78 C 110.38 166.28 92.17 166.86 74.02 166.55 C 77.16 165.05 80.67 164.70 83.98 163.68 C 100.81 159.06 117.82 154.95 134.56 150.09 L 134.02 149.39 C 116.32 144.83 98.68 140.01 81.01 135.36 C 78.65 134.76 76.24 134.28 74.01 133.30 C 94.81 133.00 115.63 133.56 136.43 133.21 L 136.11 132.21 C 118.78 122.39 101.58 112.34 84.26 102.51 L 84.12 101.92 Z" />
<path fill="#f99d22" opacity="1.00" d=" M 308.67 103.54 C 311.17 102.94 313.63 101.91 316.24 101.89 C 315.14 103.02 313.71 103.69 312.36 104.43 C 296.16 113.65 280.07 123.09 263.81 132.20 L 263.50 133.28 C 284.33 133.50 305.17 133.12 325.99 133.38 C 323.39 134.51 320.57 134.98 317.85 135.71 C 300.64 140.29 283.42 144.83 266.22 149.42 L 265.42 149.95 L 266.18 150.53 C 285.72 155.77 305.33 160.83 324.84 166.19 L 324.70 166.79 C 306.93 166.73 289.13 166.35 271.37 166.84 C 269.11 161.67 263.48 159.06 258.03 159.27 C 258.21 156.82 258.27 154.32 259.02 151.96 C 261.27 145.57 261.49 138.17 258.66 131.94 C 260.72 127.24 261.65 121.84 259.97 116.87 C 276.10 112.10 292.46 108.08 308.67 103.54 Z" />
<path fill="#f99d22" opacity="1.00" d=" M 88.67 194.79 C 101.47 187.50 114.21 180.11 127.02 172.85 L 127.79 172.79 C 128.57 178.37 133.58 182.64 139.09 183.15 C 137.58 184.21 135.63 184.24 133.91 184.81 C 117.93 189.17 101.92 193.46 85.93 197.79 C 85.35 197.87 84.21 198.03 83.63 198.11 C 85.06 196.66 86.93 195.78 88.67 194.79 Z" />
<path fill="#f99d22" opacity="1.00" d=" M 272.10 172.85 C 274.34 173.31 276.17 174.82 278.17 175.86 C 288.74 182.06 299.41 188.08 310.03 194.19 C 312.12 195.42 314.37 196.43 316.19 198.07 C 314.98 198.03 313.80 197.84 312.64 197.51 C 296.64 193.19 280.64 188.83 264.63 184.52 C 263.30 184.09 261.81 183.98 260.71 183.04 C 266.26 182.82 271.30 178.37 272.10 172.85 Z" />
<path fill="#f99d22" opacity="1.00" d=" M 140.32 186.09 L 141.53 185.66 C 139.38 191.49 138.24 197.77 139.25 203.97 C 127.84 211.07 115.96 217.52 104.39 224.41 C 103.18 225.12 101.98 225.87 100.61 226.23 C 101.07 224.93 102.14 224.03 103.06 223.07 C 115.52 210.78 127.82 198.33 140.32 186.09 Z" />
</g>
<g id="#f99d21ff">
<path fill="#f99d21" opacity="1.00" d=" M 215.28 28.03 C 215.62 26.65 216.09 25.31 216.69 24.03 C 216.81 34.14 216.50 44.27 216.78 54.39 C 213.77 54.32 210.74 54.72 207.96 55.92 C 210.29 46.59 213.00 37.36 215.28 28.03 Z" />
<path fill="#f99d21" opacity="1.00" d=" M 183.20 238.89 C 185.28 240.59 187.71 241.99 190.51 241.81 C 189.25 242.98 187.62 243.96 187.23 245.79 C 188.69 244.83 190.21 244.46 191.79 244.67 C 188.97 255.09 186.37 265.59 183.38 275.97 C 182.86 263.62 183.57 251.25 183.20 238.89 Z" />
<path fill="#f99d21" opacity="1.00" d=" M 208.08 244.87 C 211.25 245.35 214.53 244.25 216.54 241.70 C 216.72 253.15 216.60 264.61 216.63 276.06 C 215.24 273.58 215.01 270.69 214.25 268.00 C 212.23 260.28 210.10 252.59 208.08 244.87 Z" />
</g>
<g id="#f99c21ff">
<path fill="#f99c21" opacity="1.00" d=" M 151.81 33.85 C 153.35 34.83 153.87 36.73 154.83 38.20 C 159.86 46.96 164.77 55.81 169.99 64.46 C 166.74 65.10 163.53 65.94 160.45 67.17 C 157.82 56.00 154.13 45.08 151.81 33.85 Z" />
<path fill="#f99c21" opacity="1.00" d=" M 247.03 34.99 C 247.31 34.70 247.89 34.11 248.17 33.82 C 246.92 40.99 244.32 47.86 242.82 54.99 C 240.30 55.86 237.60 55.91 234.97 55.95 C 239.01 48.97 243.04 41.99 247.03 34.99 Z" />
<path fill="#f99c21" opacity="1.00" d=" M 123.62 50.52 L 124.77 51.13 C 133.04 59.21 141.07 67.53 149.30 75.64 C 146.77 79.01 145.17 83.03 144.77 87.23 C 138.82 78.10 133.81 68.33 128.13 59.00 C 126.64 56.17 124.60 53.59 123.62 50.52 Z" />
<path fill="#f99c21" opacity="1.00" d=" M 269.48 90.31 C 279.73 85.17 289.24 78.63 299.47 73.49 C 299.02 75.17 297.43 76.10 296.33 77.31 C 284.22 89.42 272.02 101.44 259.91 113.55 L 259.18 113.19 C 259.11 111.34 258.33 109.22 259.55 107.58 C 261.28 105.17 262.11 102.33 262.60 99.45 C 266.31 97.86 269.38 94.52 269.48 90.31 Z" />
<path fill="#f99c21" opacity="1.00" d=" M 143.30 214.71 C 145.20 217.53 147.61 219.96 150.24 222.10 L 150.44 222.91 C 142.85 230.82 134.87 238.33 127.30 246.26 C 126.12 247.40 125.07 248.74 123.54 249.45 C 123.76 247.89 124.75 246.66 125.48 245.34 C 131.47 235.16 137.28 224.87 143.30 214.71 Z" />
<path fill="#f99c21" opacity="1.00" d=" M 252.00 225.79 C 254.27 223.26 256.37 220.56 258.04 217.59 C 263.57 226.31 268.44 235.47 273.75 244.34 C 274.70 245.99 275.84 247.56 276.37 249.41 L 275.25 248.98 C 267.49 241.26 259.90 233.35 252.00 225.79 Z" />
<path fill="#f99c21" opacity="1.00" d=" M 161.57 228.58 C 164.60 230.40 166.23 234.10 169.55 235.78 C 164.09 245.58 158.32 255.20 152.87 265.00 C 152.46 265.76 151.90 266.38 151.20 266.87 C 154.64 254.11 158.17 241.36 161.57 228.58 Z" />
</g>
<g id="#f89c21ff">
<path fill="#f89c21" opacity="1.00" d=" M 258.70 67.57 C 264.70 62.02 269.99 55.55 276.39 50.52 C 272.39 58.91 267.11 66.70 262.64 74.87 L 261.51 75.39 C 261.34 72.57 260.26 69.90 258.70 67.57 Z" />
</g>
<g id="#304242ff">
<path fill="#304242" opacity="1.00" d=" M 242.82 54.99 C 244.80 54.61 246.23 53.01 248.08 52.43 C 248.35 55.06 247.92 57.72 246.60 60.02 C 248.78 58.96 251.16 58.54 253.57 58.36 C 253.37 60.14 250.65 60.73 251.07 62.65 C 254.07 63.44 256.72 65.19 258.70 67.57 C 260.26 69.90 261.34 72.57 261.51 75.39 C 261.60 75.77 261.79 76.55 261.88 76.94 C 265.74 80.42 269.21 84.91 269.48 90.31 C 269.38 94.52 266.31 97.86 262.60 99.45 C 262.11 102.33 261.28 105.17 259.55 107.58 C 258.33 109.22 259.11 111.34 259.18 113.19 C 259.32 114.44 259.65 115.66 259.97 116.87 C 261.65 121.84 260.72 127.24 258.66 131.94 C 261.49 138.17 261.27 145.57 259.02 151.96 C 258.27 154.32 258.21 156.82 258.03 159.27 C 263.48 159.06 269.11 161.67 271.37 166.84 C 272.00 168.77 272.40 170.81 272.10 172.85 C 271.30 178.37 266.26 182.82 260.71 183.04 L 259.49 183.18 C 259.59 185.22 260.49 187.15 261.33 189.00 C 264.26 194.22 265.31 200.44 263.85 206.29 C 263.20 208.62 262.04 210.80 260.26 212.47 C 259.39 214.12 259.00 215.98 258.04 217.59 C 256.37 220.56 254.27 223.26 252.00 225.79 C 248.52 229.31 243.64 230.78 238.98 231.98 C 235.83 232.79 232.55 233.50 229.80 235.31 C 226.22 238.77 223.02 243.91 217.20 243.26 C 217.38 242.40 217.73 240.70 217.91 239.84 C 217.57 240.31 216.89 241.23 216.54 241.70 C 214.53 244.25 211.25 245.35 208.08 244.87 C 205.40 244.51 203.25 246.32 201.15 247.64 C 201.43 246.71 201.97 244.85 202.25 243.93 C 199.15 245.99 195.18 245.96 191.79 244.67 C 190.21 244.46 188.69 244.83 187.23 245.79 C 187.62 243.96 189.25 242.98 190.51 241.81 C 187.71 241.99 185.28 240.59 183.20 238.89 C 178.46 239.57 173.59 238.28 169.55 235.78 C 166.23 234.10 164.60 230.40 161.57 228.58 C 157.53 226.93 153.69 224.77 150.24 222.10 C 147.61 219.96 145.20 217.53 143.30 214.71 C 141.20 211.47 139.75 207.80 139.25 203.97 C 138.24 197.77 139.38 191.49 141.53 185.66 C 141.80 184.82 142.03 183.96 142.23 183.10 C 141.44 183.11 139.88 183.14 139.09 183.15 C 133.58 182.64 128.57 178.37 127.79 172.79 C 127.58 170.75 127.88 168.71 128.54 166.78 C 130.96 161.44 137.02 158.62 142.72 159.52 C 142.96 155.55 141.74 151.75 140.65 147.98 C 139.77 142.63 139.87 136.90 142.12 131.88 C 140.14 127.20 139.12 121.88 140.84 116.95 C 140.96 116.46 141.20 115.48 141.32 114.99 C 141.77 112.30 142.46 109.32 141.11 106.79 C 139.41 103.23 138.96 99.25 139.21 95.36 C 140.02 93.35 140.10 90.03 142.26 89.22 C 142.83 91.15 143.40 93.46 145.32 94.48 C 144.99 92.07 144.50 89.67 144.77 87.23 C 145.17 83.03 146.77 79.01 149.30 75.64 C 152.23 71.94 156.07 68.96 160.45 67.17 C 163.53 65.94 166.74 65.10 169.99 64.46 C 174.40 63.63 178.87 63.10 183.29 62.30 C 186.55 61.73 189.79 60.94 192.91 59.81 C 196.80 58.57 200.05 56.05 203.24 53.64 C 203.53 55.52 203.38 57.41 202.98 59.25 C 204.54 58.00 206.10 56.70 207.96 55.92 C 210.74 54.72 213.77 54.32 216.78 54.39 C 222.86 54.65 228.87 55.91 234.97 55.95 C 237.60 55.91 240.30 55.86 242.82 54.99 M 152.26 126.07 C 152.28 134.54 152.23 143.01 152.12 151.48 C 153.66 150.14 154.77 148.11 156.96 147.77 C 156.49 146.91 156.05 146.04 155.64 145.15 C 155.88 143.78 156.49 142.53 157.10 141.29 C 160.31 136.92 165.85 135.52 171.03 136.11 C 169.97 134.37 171.14 132.97 173.00 133.17 C 177.83 133.55 182.48 135.17 186.94 136.99 C 189.81 138.32 192.92 139.63 194.93 142.19 C 196.26 144.17 195.59 146.96 193.43 148.04 C 197.17 150.95 202.64 150.66 206.78 148.41 C 207.18 147.19 205.46 146.84 205.34 145.74 C 204.43 142.83 207.09 140.52 209.35 139.26 C 215.12 136.08 221.51 133.75 228.09 133.13 C 229.94 133.21 230.76 134.51 229.55 136.12 C 234.93 135.48 240.81 136.94 243.94 141.68 C 245.05 143.63 245.61 145.97 243.79 147.71 C 246.05 148.16 247.33 150.10 248.57 151.84 C 248.85 143.22 248.43 134.59 248.58 125.98 C 248.98 121.25 249.38 115.14 244.69 112.31 L 244.29 112.65 C 241.04 115.55 236.15 116.53 232.28 114.25 C 229.06 117.45 224.57 118.89 220.14 119.30 C 220.32 118.67 220.67 117.42 220.85 116.80 C 214.41 120.00 207.09 121.50 199.91 121.09 C 200.23 120.45 200.86 119.17 201.18 118.54 C 196.74 120.64 191.65 120.91 186.91 119.79 C 187.48 118.74 188.34 117.90 189.07 116.98 C 178.31 119.05 166.35 118.09 157.01 111.92 C 151.47 114.29 151.80 121.07 152.26 126.07 M 156.17 155.82 C 158.07 161.52 160.90 166.87 163.82 172.11 C 165.20 174.68 168.09 176.14 170.95 176.17 C 175.28 176.24 179.62 176.18 183.95 176.20 C 185.82 176.31 187.67 175.45 188.98 174.17 C 192.31 171.32 193.08 166.73 194.64 162.85 L 194.51 162.66 C 195.70 159.58 195.86 155.31 193.01 153.05 C 190.51 151.54 187.44 151.36 184.59 151.29 C 179.37 151.24 174.14 151.16 168.91 151.19 C 165.94 151.12 162.97 151.25 160.00 151.27 C 157.72 151.29 155.43 153.43 156.17 155.82 M 214.91 151.32 C 211.13 151.37 205.90 152.43 205.60 157.08 C 205.29 162.55 207.64 167.92 210.33 172.58 C 213.52 177.66 220.01 175.92 225.00 176.19 C 228.32 176.08 232.49 176.81 235.01 174.23 C 237.25 172.83 238.07 169.90 239.36 167.68 L 239.17 167.43 C 240.09 166.28 240.93 165.05 241.34 163.62 C 242.60 161.15 243.77 158.61 244.59 155.96 C 245.46 153.65 243.22 151.38 240.99 151.30 C 237.51 151.22 234.02 151.07 230.54 151.25 C 228.66 151.03 226.78 151.30 224.91 151.40 C 221.64 150.95 218.22 151.21 214.91 151.32 M 239.76 175.66 C 236.92 179.73 231.67 180.69 227.02 180.57 C 222.92 180.41 218.76 180.95 214.71 180.19 C 215.50 181.27 216.34 182.33 217.21 183.37 L 217.22 183.37 C 218.66 185.65 219.79 188.36 222.19 189.84 C 225.60 191.37 230.09 189.64 231.50 186.15 C 233.66 186.32 233.33 189.70 234.15 191.22 C 233.93 193.19 233.33 195.06 232.03 196.61 C 241.15 195.79 248.68 187.12 248.30 178.00 C 248.37 171.40 248.40 164.80 248.56 158.21 C 245.85 164.12 243.40 170.23 239.76 175.66 M 152.27 158.80 C 152.40 165.54 152.44 172.28 152.53 179.03 C 152.69 187.77 160.02 195.82 168.77 196.60 C 167.49 195.00 166.86 193.12 166.70 191.10 C 167.41 189.51 167.31 186.69 169.13 186.04 C 170.76 189.52 175.21 191.51 178.77 189.76 C 181.19 188.16 182.34 185.33 183.84 182.95 C 184.42 182.26 185.58 180.86 186.17 180.17 C 182.49 180.94 178.72 180.42 175.00 180.57 C 170.32 180.68 164.91 180.29 161.65 176.44 C 157.55 171.13 155.51 164.56 152.27 158.80 M 136.98 163.91 C 132.34 165.41 129.73 171.90 133.27 175.72 C 135.62 179.10 140.17 179.48 143.83 178.43 C 142.06 176.41 142.59 173.78 142.55 171.35 C 139.97 170.31 139.92 174.52 137.76 174.05 C 136.61 172.09 139.05 170.56 140.02 169.09 C 138.31 169.17 136.66 169.58 135.04 170.05 L 134.61 168.98 C 136.51 165.95 141.30 167.32 143.77 169.28 C 144.06 167.59 144.81 165.78 144.10 164.09 C 141.85 163.17 139.26 162.95 136.98 163.91 M 198.13 165.97 C 196.74 169.97 195.31 174.15 192.21 177.18 C 195.29 176.74 198.62 178.03 200.35 180.67 C 202.23 178.20 205.34 176.71 208.46 177.16 C 205.44 173.92 203.92 169.71 202.52 165.59 C 202.08 164.42 201.77 162.51 200.10 162.66 C 198.93 163.37 198.58 164.78 198.13 165.97 M 255.92 164.09 C 254.78 165.64 256.03 167.65 256.14 169.34 C 257.87 168.16 259.81 166.94 262.03 167.22 C 263.47 167.52 266.22 167.85 265.00 170.02 C 263.34 169.64 261.68 169.19 259.98 169.07 C 260.81 170.63 263.32 172.13 262.11 174.09 C 259.96 174.36 259.90 170.53 257.39 171.27 C 257.47 173.79 257.64 176.35 256.11 178.50 C 261.29 180.82 268.37 176.94 268.29 171.04 C 268.10 165.19 260.99 161.51 255.92 164.09 M 187.38 193.32 C 185.58 196.51 188.71 200.14 192.05 199.83 C 195.00 200.20 197.41 197.11 196.76 194.31 C 194.91 193.38 192.88 193.30 190.88 193.29 C 190.79 193.03 190.60 192.52 190.51 192.26 C 192.83 189.84 196.26 192.34 198.90 192.89 C 202.73 194.27 206.42 189.48 210.05 192.11 C 210.14 195.03 207.04 192.15 206.00 193.92 C 204.24 193.68 203.57 194.37 204.00 195.98 C 204.62 201.24 213.23 201.00 213.90 195.94 C 213.96 190.72 208.46 187.72 203.85 187.36 C 198.01 186.70 190.22 187.25 187.38 193.32 Z" />
</g>
<g id="#e68c1dff">
<path fill="#e68c1d" opacity="1.00" d=" M 152.26 126.07 C 151.80 121.07 151.47 114.29 157.01 111.92 C 156.99 121.71 157.34 131.50 157.10 141.29 C 156.49 142.53 155.88 143.78 155.64 145.15 C 156.05 146.04 156.49 146.91 156.96 147.77 C 154.77 148.11 153.66 150.14 152.12 151.48 C 152.23 143.01 152.28 134.54 152.26 126.07 Z" />
</g>
<g id="#edc94fff">
<path fill="#edc94f" opacity="1.00" d=" M 157.01 111.92 C 166.35 118.09 178.31 119.05 189.07 116.98 C 188.34 117.90 187.48 118.74 186.91 119.79 C 191.65 120.91 196.74 120.64 201.18 118.54 C 200.86 119.17 200.23 120.45 199.91 121.09 C 207.09 121.50 214.41 120.00 220.85 116.80 C 220.67 117.42 220.32 118.67 220.14 119.30 C 224.57 118.89 229.06 117.45 232.28 114.25 C 236.15 116.53 241.04 115.55 244.29 112.65 C 244.13 122.33 244.37 132.01 243.94 141.68 C 240.81 136.94 234.93 135.48 229.55 136.12 C 230.76 134.51 229.94 133.21 228.09 133.13 C 221.51 133.75 215.12 136.08 209.35 139.26 C 207.09 140.52 204.43 142.83 205.34 145.74 C 205.46 146.84 207.18 147.19 206.78 148.41 C 202.64 150.66 197.17 150.95 193.43 148.04 C 195.59 146.96 196.26 144.17 194.93 142.19 C 192.92 139.63 189.81 138.32 186.94 136.99 C 182.48 135.17 177.83 133.55 173.00 133.17 C 171.14 132.97 169.97 134.37 171.03 136.11 C 165.85 135.52 160.31 136.92 157.10 141.29 C 157.34 131.50 156.99 121.71 157.01 111.92 Z" />
<path fill="#edc94f" opacity="1.00" d=" M 156.17 155.82 C 155.43 153.43 157.72 151.29 160.00 151.27 C 162.97 151.25 165.94 151.12 168.91 151.19 C 171.13 153.41 173.14 155.83 175.11 158.27 C 172.89 158.73 169.82 157.25 168.29 159.38 C 168.14 161.33 170.35 161.23 171.72 161.20 C 171.78 161.88 171.91 163.25 171.97 163.93 C 173.65 166.93 178.14 165.84 178.60 162.54 C 182.43 166.06 185.64 170.19 188.98 174.17 C 187.67 175.45 185.82 176.31 183.95 176.20 C 179.62 176.18 175.28 176.24 170.95 176.17 C 168.09 176.14 165.20 174.68 163.82 172.11 C 160.90 166.87 158.07 161.52 156.17 155.82 Z" />
<path fill="#edc94f" opacity="1.00" d=" M 230.54 151.25 C 234.02 151.07 237.51 151.22 240.99 151.30 C 243.22 151.38 245.46 153.65 244.59 155.96 C 243.77 158.61 242.60 161.15 241.34 163.62 C 237.57 159.65 233.96 155.53 230.54 151.25 Z" />
<path fill="#edc94f" opacity="1.00" d=" M 205.60 157.08 C 205.90 152.43 211.13 151.37 214.91 151.32 C 217.10 153.45 219.11 155.78 221.02 158.17 C 217.39 158.40 219.61 162.47 222.44 161.20 C 221.67 164.13 224.81 166.83 227.54 165.34 C 229.91 168.41 232.65 171.16 235.01 174.23 C 232.49 176.81 228.32 176.08 225.00 176.19 C 220.01 175.92 213.52 177.66 210.33 172.58 C 207.64 167.92 205.29 162.55 205.60 157.08 Z" />
<path fill="#edc94f" opacity="1.00" d=" M 198.13 165.97 C 198.58 164.78 198.93 163.37 200.10 162.66 C 201.77 162.51 202.08 164.42 202.52 165.59 C 203.92 169.71 205.44 173.92 208.46 177.16 C 205.34 176.71 202.23 178.20 200.35 180.67 C 198.62 178.03 195.29 176.74 192.21 177.18 C 195.31 174.15 196.74 169.97 198.13 165.97 Z" />
<path fill="#edc94f" opacity="1.00" d=" M 157.38 176.60 C 157.52 176.45 157.80 176.15 157.94 176.00 C 160.23 178.83 162.91 181.64 166.64 182.40 C 172.27 183.62 178.12 183.12 183.84 182.95 C 182.34 185.33 181.19 188.16 178.77 189.76 C 175.21 191.51 170.76 189.52 169.13 186.04 C 167.31 186.69 167.41 189.51 166.70 191.10 C 161.22 188.32 157.83 182.67 157.38 176.60 Z" />
</g>
<g id="#e68c1cff">
<path fill="#e68c1c" opacity="1.00" d=" M 244.29 112.65 L 244.69 112.31 C 249.38 115.14 248.98 121.25 248.58 125.98 C 248.43 134.59 248.85 143.22 248.57 151.84 C 247.33 150.10 246.05 148.16 243.79 147.71 C 245.61 145.97 245.05 143.63 243.94 141.68 C 244.37 132.01 244.13 122.33 244.29 112.65 Z" />
</g>
<g id="#f7e4a9ff">
<path fill="#f7e4a9" opacity="1.00" d=" M 168.91 151.19 C 174.14 151.16 179.37 151.24 184.59 151.29 C 187.72 155.22 191.05 159.01 194.51 162.66 L 194.64 162.85 C 193.08 166.73 192.31 171.32 188.98 174.17 C 185.64 170.19 182.43 166.06 178.60 162.54 L 177.95 161.44 C 179.36 161.09 181.33 161.59 181.96 159.85 C 180.92 157.02 177.35 158.76 175.11 158.27 C 173.14 155.83 171.13 153.41 168.91 151.19 Z" />
<path fill="#f7e4a9" opacity="1.00" d=" M 214.91 151.32 C 218.22 151.21 221.64 150.95 224.91 151.40 C 226.60 153.75 228.27 156.16 230.39 158.18 C 227.27 158.35 224.13 158.38 221.02 158.17 C 219.11 155.78 217.10 153.45 214.91 151.32 Z" />
<path fill="#f7e4a9" opacity="1.00" d=" M 229.06 161.31 C 229.85 161.20 231.42 160.98 232.21 160.87 C 234.58 163.01 236.79 165.30 239.17 167.43 L 239.36 167.68 C 238.07 169.90 237.25 172.83 235.01 174.23 C 232.65 171.16 229.91 168.41 227.54 165.34 C 228.89 164.36 229.00 162.83 229.06 161.31 Z" />
</g>
<g id="#ecc950ff">
<path fill="#ecc950" opacity="1.00" d=" M 184.59 151.29 C 187.44 151.36 190.51 151.54 193.01 153.05 C 195.86 155.31 195.70 159.58 194.51 162.66 C 191.05 159.01 187.72 155.22 184.59 151.29 Z" />
</g>
<g id="#f6e4a9ff">
<path fill="#f6e4a9" opacity="1.00" d=" M 224.91 151.40 C 226.78 151.30 228.66 151.03 230.54 151.25 C 233.96 155.53 237.57 159.65 241.34 163.62 C 240.93 165.05 240.09 166.28 239.17 167.43 C 236.79 165.30 234.58 163.01 232.21 160.87 C 232.31 160.35 232.50 159.31 232.60 158.79 C 232.05 158.64 230.94 158.33 230.39 158.18 C 228.27 156.16 226.60 153.75 224.91 151.40 Z" />
</g>
<g id="#2f4141ff">
<path fill="#2f4141" opacity="1.00" d=" M 168.29 159.38 C 169.82 157.25 172.89 158.73 175.11 158.27 C 177.35 158.76 180.92 157.02 181.96 159.85 C 181.33 161.59 179.36 161.09 177.95 161.44 L 178.60 162.54 C 178.14 165.84 173.65 166.93 171.97 163.93 C 171.91 163.25 171.78 161.88 171.72 161.20 C 170.35 161.23 168.14 161.33 168.29 159.38 Z" />
</g>
<g id="#2c4041ff">
<path fill="#2c4041" opacity="1.00" d=" M 222.44 161.20 C 219.61 162.47 217.39 158.40 221.02 158.17 C 224.13 158.38 227.27 158.35 230.39 158.18 C 230.94 158.33 232.05 158.64 232.60 158.79 C 232.50 159.31 232.31 160.35 232.21 160.87 C 231.42 160.98 229.85 161.20 229.06 161.31 C 229.00 162.83 228.89 164.36 227.54 165.34 C 224.81 166.83 221.67 164.13 222.44 161.20 Z" />
</g>
<g id="#e68c1eff">
<path fill="#e68c1e" opacity="1.00" d=" M 239.76 175.66 C 243.40 170.23 245.85 164.12 248.56 158.21 C 248.40 164.80 248.37 171.40 248.30 178.00 C 248.68 187.12 241.15 195.79 232.03 196.61 C 233.33 195.06 233.93 193.19 234.15 191.22 C 240.52 188.47 244.06 181.66 243.84 174.89 C 241.58 177.26 239.73 180.23 236.58 181.53 C 230.48 184.27 223.64 182.52 217.22 183.37 L 217.21 183.37 C 216.34 182.33 215.50 181.27 214.71 180.19 C 218.76 180.95 222.92 180.41 227.02 180.57 C 231.67 180.69 236.92 179.73 239.76 175.66 Z" />
<path fill="#e68c1e" opacity="1.00" d=" M 152.27 158.80 C 155.51 164.56 157.55 171.13 161.65 176.44 C 164.91 180.29 170.32 180.68 175.00 180.57 C 178.72 180.42 182.49 180.94 186.17 180.17 C 185.58 180.86 184.42 182.26 183.84 182.95 C 178.12 183.12 172.27 183.62 166.64 182.40 C 162.91 181.64 160.23 178.83 157.94 176.00 C 157.80 176.15 157.52 176.45 157.38 176.60 C 157.83 182.67 161.22 188.32 166.70 191.10 C 166.86 193.12 167.49 195.00 168.77 196.60 C 160.02 195.82 152.69 187.77 152.53 179.03 C 152.44 172.28 152.40 165.54 152.27 158.80 Z" />
</g>
<g id="#ebc74fff">
<path fill="#ebc74f" opacity="1.00" d=" M 136.98 163.91 C 139.26 162.95 141.85 163.17 144.10 164.09 C 144.81 165.78 144.06 167.59 143.77 169.28 C 141.30 167.32 136.51 165.95 134.61 168.98 L 135.04 170.05 C 136.66 169.58 138.31 169.17 140.02 169.09 C 139.05 170.56 136.61 172.09 137.76 174.05 C 139.92 174.52 139.97 170.31 142.55 171.35 C 142.59 173.78 142.06 176.41 143.83 178.43 C 140.17 179.48 135.62 179.10 133.27 175.72 C 129.73 171.90 132.34 165.41 136.98 163.91 Z" />
<path fill="#ebc74f" opacity="1.00" d=" M 255.92 164.09 C 260.99 161.51 268.10 165.19 268.29 171.04 C 268.37 176.94 261.29 180.82 256.11 178.50 C 257.64 176.35 257.47 173.79 257.39 171.27 C 259.90 170.53 259.96 174.36 262.11 174.09 C 263.32 172.13 260.81 170.63 259.98 169.07 C 261.68 169.19 263.34 169.64 265.00 170.02 C 266.22 167.85 263.47 167.52 262.03 167.22 C 259.81 166.94 257.87 168.16 256.14 169.34 C 256.03 167.65 254.78 165.64 255.92 164.09 Z" />
</g>
<g id="#edc84fff">
<path fill="#edc84f" opacity="1.00" d=" M 236.58 181.53 C 239.73 180.23 241.58 177.26 243.84 174.89 C 244.06 181.66 240.52 188.47 234.15 191.22 C 233.33 189.70 233.66 186.32 231.50 186.15 C 230.09 189.64 225.60 191.37 222.19 189.84 C 219.79 188.36 218.66 185.65 217.22 183.37 C 223.64 182.52 230.48 184.27 236.58 181.53 Z" />
</g>
<g id="#ebc84fff">
<path fill="#ebc84f" opacity="1.00" d=" M 187.38 193.32 C 190.22 187.25 198.01 186.70 203.85 187.36 C 208.46 187.72 213.96 190.72 213.90 195.94 C 213.23 201.00 204.62 201.24 204.00 195.98 C 205.06 195.69 205.73 195.01 206.00 193.92 C 207.04 192.15 210.14 195.03 210.05 192.11 C 206.42 189.48 202.73 194.27 198.90 192.89 C 196.26 192.34 192.83 189.84 190.51 192.26 C 190.60 192.52 190.79 193.03 190.88 193.29 C 192.88 193.30 194.91 193.38 196.76 194.31 C 197.41 197.11 195.00 200.20 192.05 199.83 C 188.71 200.14 185.58 196.51 187.38 193.32 Z" />
</g>
<g id="#f99c22ff">
<path fill="#f99c22" opacity="1.00" d=" M 261.33 189.00 L 262.56 189.08 C 274.03 200.39 285.37 211.85 296.85 223.17 C 297.77 224.17 299.02 224.99 299.38 226.40 C 287.28 220.22 275.88 212.65 263.85 206.29 C 265.31 200.44 264.26 194.22 261.33 189.00 Z" />
<path fill="#f99c22" opacity="1.00" d=" M 229.80 235.31 C 232.55 233.50 235.83 232.79 238.98 231.98 C 241.71 240.52 243.72 249.31 246.20 257.94 C 246.82 260.68 247.99 263.34 248.08 266.18 C 247.81 265.89 247.28 265.31 247.02 265.02 C 241.27 255.13 235.73 245.10 229.80 235.31 Z" />
</g>
<g id="#e58b1dff">
<path fill="#e58b1d" opacity="1.00" d=" M 204.00 195.98 C 203.57 194.37 204.24 193.68 206.00 193.92 C 205.73 195.01 205.06 195.69 204.00 195.98 Z" />
</g>
</svg>
