<?xml version="1.0" encoding="UTF-8" ?>
<!DOCTYPE svg PUBLIC "-//W3C//DTD SVG 1.1//EN" "http://www.w3.org/Graphics/SVG/1.1/DTD/svg11.dtd">
<svg width="512pt" height="512pt" viewBox="0 0 512 512" version="1.1" xmlns="http://www.w3.org/2000/svg">
<g id="#f6790aff">
<path fill="#f6790a" opacity="1.00" d=" M 263.65 7.49 C 269.32 4.44 276.26 1.03 282.59 4.35 C 293.80 9.94 301.52 20.30 309.36 29.72 C 312.54 33.37 314.83 38.77 320.15 39.57 C 328.13 41.01 335.82 37.08 342.94 33.95 C 351.47 38.38 358.46 45.16 364.74 52.32 C 381.37 72.09 390.12 97.49 392.50 122.98 C 393.60 135.21 393.26 147.57 392.52 159.83 C 398.55 177.88 401.29 196.87 402.22 215.84 C 403.39 226.84 402.71 237.92 403.32 248.94 C 409.80 253.05 416.33 257.57 421.21 263.67 C 430.18 274.26 434.90 288.12 434.84 301.95 C 434.37 317.45 427.90 332.88 416.43 343.45 C 410.26 349.51 402.49 353.58 394.44 356.55 C 390.52 370.08 385.16 383.16 378.92 395.79 C 371.99 424.56 360.78 453.32 340.36 475.29 C 326.29 490.69 307.47 501.81 287.02 506.11 C 268.57 510.20 249.19 509.92 230.85 505.40 C 213.90 501.20 198.10 492.54 185.49 480.46 C 166.02 462.08 153.96 437.28 146.22 411.97 C 144.71 407.46 144.30 402.49 141.66 398.43 C 134.57 385.69 129.32 372.03 124.93 358.15 C 112.37 356.08 100.67 349.34 92.23 339.85 C 80.31 326.88 74.91 308.17 78.18 290.86 C 81.42 270.73 96.43 253.27 115.46 246.25 C 115.84 241.25 116.07 236.23 116.03 231.21 C 115.79 225.18 116.91 219.22 116.89 213.21 C 117.67 196.34 120.13 179.44 125.27 163.32 C 125.97 160.93 125.54 158.42 125.56 155.97 C 125.79 137.11 126.24 118.23 128.62 99.49 C 130.54 84.28 133.01 68.82 139.39 54.75 C 144.83 58.70 149.79 63.26 155.16 67.31 C 162.30 50.43 175.87 35.91 193.10 29.21 C 204.48 24.65 216.96 24.81 228.72 21.81 C 241.02 18.87 252.65 13.66 263.65 7.49 M 222.46 67.55 C 220.37 71.53 222.23 76.82 226.42 78.52 C 243.15 85.79 259.02 95.23 272.82 107.20 C 284.67 117.83 295.53 130.08 302.44 144.53 C 296.29 146.40 290.29 148.74 284.18 150.74 C 268.61 133.27 249.79 118.78 229.10 107.90 C 224.29 104.94 217.60 109.59 217.93 115.02 C 217.81 118.46 220.51 121.24 223.42 122.65 C 239.63 131.45 254.51 142.63 267.49 155.73 C 263.22 158.06 258.24 158.44 253.54 159.39 C 243.87 161.27 234.17 158.25 225.19 154.87 C 213.04 149.73 201.25 143.16 188.04 141.11 C 177.47 139.72 166.32 140.80 156.75 145.72 C 147.47 158.01 143.19 173.28 140.33 188.20 C 137.05 206.76 136.75 225.62 136.14 244.40 C 168.57 240.15 201.93 238.78 234.04 246.01 C 239.75 247.08 245.09 250.21 251.04 249.63 C 259.71 249.48 268.56 250.55 277.02 248.09 C 311.73 240.68 347.67 240.94 382.76 245.24 C 382.03 227.09 381.99 208.86 378.98 190.90 C 376.81 178.61 373.88 166.16 367.81 155.16 C 357.78 149.58 347.24 144.85 336.58 140.59 C 330.85 137.90 324.18 138.55 318.27 140.27 C 300.83 105.07 268.41 79.31 232.71 64.21 C 229.12 62.42 224.24 63.90 222.46 67.55 M 160.94 262.03 C 161.42 271.04 162.20 280.21 165.17 288.80 C 166.99 293.44 169.35 298.66 174.29 300.65 C 184.03 302.92 194.05 304.22 204.07 304.01 C 211.17 303.63 219.01 301.50 223.03 295.11 C 228.47 286.59 233.04 277.28 235.28 267.40 C 223.16 263.86 210.57 261.98 197.95 261.56 C 185.63 260.09 173.28 261.91 160.94 262.03 M 281.30 267.91 C 284.06 277.61 288.28 286.90 293.74 295.38 C 297.21 300.87 303.87 303.02 309.99 303.80 C 320.40 304.56 330.82 303.18 340.98 300.98 C 345.00 300.24 347.76 296.81 349.48 293.34 C 354.06 284.00 355.24 273.44 355.42 263.16 C 330.66 262.29 305.56 262.28 281.30 267.91 M 100.61 286.75 C 94.94 300.50 98.25 317.60 109.17 327.84 C 117.35 336.10 129.63 340.07 141.09 338.16 C 141.83 340.94 142.11 343.90 143.41 346.51 C 159.34 363.47 172.89 382.50 186.55 401.29 C 196.19 382.67 215.83 371.25 235.90 367.25 C 255.41 363.45 276.02 363.92 294.99 370.10 C 311.11 375.28 325.76 386.05 333.79 401.16 C 346.90 383.21 360.02 365.19 374.82 348.58 C 376.50 345.56 376.35 341.87 377.82 338.75 C 382.42 337.94 387.21 337.64 391.48 335.54 C 404.66 329.97 413.95 316.34 414.07 301.99 C 414.93 285.36 403.03 269.26 387.02 264.87 C 383.87 264.65 380.77 266.18 377.60 265.30 C 376.90 278.71 375.08 292.56 368.19 304.36 C 363.93 311.89 356.97 318.03 348.57 320.43 C 338.28 323.13 327.64 324.14 317.05 324.74 C 305.82 324.64 294.08 322.91 284.67 316.35 C 276.52 310.84 272.04 301.79 267.61 293.33 C 264.55 286.80 261.72 280.11 259.89 273.12 C 259.72 272.11 258.61 269.10 257.34 270.99 C 255.03 279.81 251.79 288.41 247.39 296.40 C 243.55 303.53 239.39 310.87 232.66 315.69 C 222.50 323.27 209.35 324.91 197.02 324.62 C 187.15 323.83 177.20 322.96 167.63 320.28 C 160.57 318.29 154.70 313.33 150.41 307.51 C 141.95 295.10 139.73 279.74 139.04 265.06 C 135.61 265.27 132.46 263.11 129.04 263.89 C 116.47 265.95 105.36 274.95 100.61 286.75 M 260.27 399.42 C 257.81 401.68 255.04 403.59 251.99 404.98 C 240.57 410.41 228.14 413.22 215.87 416.00 C 219.91 418.18 224.55 418.85 228.97 419.93 C 243.78 422.40 258.91 424.88 273.89 422.50 C 284.23 421.11 294.82 420.15 304.56 416.17 C 298.87 414.30 292.89 413.51 287.15 411.79 C 277.75 408.88 267.72 406.23 260.27 399.42 Z" />
</g>
<g id="#a05e2854">
<path fill="#a05e28" opacity="0.33" d=" M 116.27 214.02 C 116.42 213.81 116.73 213.41 116.89 213.21 C 116.91 219.22 115.79 225.18 116.03 231.21 C 115.82 225.48 115.97 219.73 116.27 214.02 Z" />
</g>
</svg>
