<?xml version="1.0" encoding="UTF-8" ?>
<!DOCTYPE svg PUBLIC "-//W3C//DTD SVG 1.1//EN" "http://www.w3.org/Graphics/SVG/1.1/DTD/svg11.dtd">
<svg width="512pt" height="512pt" viewBox="0 0 512 512" version="1.1" xmlns="http://www.w3.org/2000/svg">
<g id="#333333ff">
<path fill="#333333" opacity="1.00" d=" M 259.07 10.17 C 264.19 7.56 269.17 4.25 274.95 3.31 C 280.32 2.54 285.19 5.63 289.29 8.70 C 297.59 15.32 304.29 23.66 310.82 31.96 C 313.23 34.98 315.40 38.91 319.57 39.66 C 327.81 41.47 335.53 37.11 343.01 34.42 C 347.59 36.33 351.40 39.67 355.19 42.81 C 373.94 59.62 385.33 83.39 390.11 107.86 C 393.27 124.35 393.79 141.28 392.30 157.98 C 392.01 160.96 393.60 163.66 394.33 166.47 C 402.31 193.38 402.47 221.71 403.21 249.53 C 416.24 256.10 426.44 267.95 431.24 281.71 C 436.67 296.93 435.31 314.41 427.56 328.59 C 420.62 341.73 408.32 351.73 394.24 356.31 C 390.50 369.16 385.70 381.70 379.63 393.63 C 378.08 396.58 377.66 399.93 376.80 403.11 C 372.71 418.50 367.33 433.63 359.69 447.64 C 350.43 464.83 337.71 480.48 321.35 491.35 C 306.72 501.22 289.42 506.77 271.89 508.25 C 250.23 510.10 227.75 506.84 208.38 496.64 C 188.29 486.21 172.57 468.71 161.82 449.01 C 153.49 434.14 147.89 417.92 143.48 401.52 C 135.97 387.80 129.64 373.37 125.37 358.29 C 111.38 355.47 98.29 347.88 89.61 336.44 C 78.80 322.69 74.87 303.88 79.21 286.93 C 83.63 268.44 97.93 252.85 115.75 246.38 C 116.49 218.78 116.79 190.59 125.29 164.04 C 126.23 161.10 125.72 157.97 125.79 154.95 C 125.88 133.87 126.85 112.75 129.81 91.86 C 131.80 79.29 134.22 66.61 139.50 54.95 C 144.78 59.18 149.99 63.50 155.27 67.74 C 162.19 50.89 175.62 36.43 192.66 29.62 C 200.02 26.56 207.97 25.45 215.82 24.43 C 230.98 22.48 245.68 17.50 259.07 10.17 M 221.55 69.43 C 220.47 73.46 223.14 77.65 226.96 79.01 C 257.81 92.37 286.34 114.02 302.29 144.18 C 296.28 146.39 290.21 148.44 284.15 150.49 C 268.91 133.09 250.16 118.99 229.87 108.00 C 225.97 105.55 220.33 107.31 218.50 111.52 C 216.63 115.25 218.31 120.08 221.96 122.02 C 238.50 131.17 254.20 142.19 267.20 155.99 C 258.42 158.57 249.12 160.86 239.95 159.02 C 224.14 156.28 210.77 146.57 195.38 142.51 C 182.65 138.86 168.46 139.56 156.56 145.59 C 147.75 157.37 143.35 171.85 140.51 186.13 C 136.96 205.43 136.32 225.12 136.04 244.71 C 150.95 242.55 166.00 241.38 181.06 241.19 C 199.80 241.00 218.70 242.30 236.90 246.96 C 241.26 247.97 245.42 250.21 250.01 249.84 C 258.72 249.48 267.63 250.89 276.14 248.51 C 311.16 240.91 347.48 241.13 382.90 245.52 C 382.51 227.47 382.08 209.36 379.28 191.49 C 377.30 179.36 374.21 167.28 368.75 156.22 C 368.13 154.52 366.30 153.99 364.87 153.19 C 354.92 148.34 344.98 143.40 334.57 139.61 C 329.26 137.62 323.55 138.83 318.18 139.82 C 300.76 104.49 268.01 78.87 232.26 63.77 C 227.92 61.86 222.47 64.83 221.55 69.43 M 160.90 262.03 C 161.14 271.64 162.07 281.44 165.59 290.46 C 167.53 295.16 170.62 300.42 176.09 301.33 C 185.93 303.28 196.00 304.79 206.04 303.99 C 212.32 303.46 219.13 301.32 222.80 295.83 C 228.63 287.16 232.83 277.45 235.77 267.44 C 211.62 259.97 185.87 260.26 160.90 262.03 M 281.03 267.67 C 283.75 277.50 288.04 286.88 293.54 295.46 C 296.83 300.67 303.03 303.07 308.91 303.80 C 319.51 305.03 330.18 303.35 340.58 301.34 C 345.29 300.53 348.40 296.38 350.26 292.29 C 354.35 283.15 355.42 273.01 355.71 263.11 C 330.77 261.62 305.51 262.34 281.03 267.67 M 99.89 288.09 C 94.80 301.70 98.51 318.04 109.04 328.06 C 117.30 336.30 129.48 340.14 141.00 338.51 C 141.68 341.17 141.86 344.04 143.19 346.48 C 159.10 363.62 172.78 382.67 186.51 401.56 C 195.79 383.93 213.88 372.54 232.93 368.13 C 254.00 363.39 276.55 363.84 297.02 371.03 C 312.40 376.37 326.05 387.08 333.83 401.53 C 346.90 383.51 360.02 365.46 374.89 348.87 C 376.62 345.85 376.81 342.19 377.85 338.89 C 395.74 338.45 412.01 323.90 413.97 306.04 C 416.92 287.76 404.06 268.44 385.96 264.50 C 383.11 265.05 380.23 265.55 377.32 265.15 C 376.77 279.69 374.50 294.93 366.13 307.21 C 361.06 314.77 352.82 319.99 343.82 321.35 C 329.74 323.96 315.10 325.89 300.91 322.94 C 290.80 320.87 281.14 315.34 275.42 306.58 C 268.21 295.47 262.58 283.23 259.37 270.36 C 258.87 270.33 257.86 270.28 257.36 270.25 C 254.85 279.98 251.12 289.39 246.21 298.16 C 243.27 303.37 240.27 308.70 235.82 312.80 C 229.12 319.11 220.15 322.53 211.12 323.69 C 197.70 325.44 184.11 323.60 170.93 320.94 C 161.95 319.24 154.15 313.29 149.42 305.58 C 141.91 293.42 139.80 278.84 139.31 264.80 C 136.48 264.89 133.85 263.79 131.10 263.41 C 117.13 264.81 104.54 274.87 99.89 288.09 M 251.18 405.13 C 239.64 410.46 227.17 413.29 214.79 415.89 C 223.01 419.64 232.10 420.73 240.94 422.02 C 250.27 423.17 259.72 424.55 269.10 423.21 C 281.43 421.76 294.12 420.81 305.68 415.92 C 297.18 414.07 288.66 412.27 280.41 409.50 C 273.22 407.12 265.84 404.39 260.22 399.12 C 257.53 401.57 254.51 403.65 251.18 405.13 Z" />
</g>
</svg>
