<?xml version="1.0" encoding="UTF-8" ?>
<!DOCTYPE svg PUBLIC "-//W3C//DTD SVG 1.1//EN" "http://www.w3.org/Graphics/SVG/1.1/DTD/svg11.dtd">
<svg width="400pt" height="300pt" viewBox="0 0 400 300" version="1.1" xmlns="http://www.w3.org/2000/svg">
<g id="#00a79dff">
</g>
<g id="#6cc4bfff">
<path fill="#6cc4bf" opacity="1.00" d=" M 183.64 62.31 C 183.86 49.46 183.21 36.54 183.80 23.73 C 187.01 35.73 190.34 47.75 193.29 59.81 C 190.17 60.97 186.91 61.72 183.64 62.31 Z" />
<path fill="#6cc4bf" opacity="1.00" d=" M 216.45 24.35 C 216.63 24.75 216.99 25.53 217.17 25.93 C 216.63 35.42 217.30 44.92 216.94 54.41 C 213.95 54.37 210.95 54.76 208.20 55.96 C 210.94 45.42 213.96 34.95 216.45 24.35 Z" />
<path fill="#6cc4bf" opacity="1.00" d=" M 151.26 32.03 C 153.06 33.90 154.02 36.36 155.32 38.57 C 160.32 47.19 165.23 55.87 170.25 64.48 C 167.06 65.15 163.88 65.91 160.86 67.16 C 157.57 55.48 154.61 43.70 151.26 32.03 Z" />
<path fill="#6cc4bf" opacity="1.00" d=" M 246.45 36.46 C 247.23 35.14 247.78 33.60 249.08 32.68 C 247.08 40.14 245.10 47.61 243.00 55.04 C 240.57 55.82 238.00 55.99 235.48 55.97 C 238.78 49.31 242.90 43.02 246.45 36.46 Z" />
<path fill="#6cc4bf" opacity="1.00" d=" M 122.85 48.83 C 131.64 57.58 140.36 66.45 149.19 75.18 L 149.47 75.89 C 147.01 79.20 145.47 83.17 145.10 87.29 C 138.77 77.41 133.21 66.93 127.17 56.82 C 125.85 54.09 123.70 51.76 122.85 48.83 Z" />
<path fill="#6cc4bf" opacity="1.00" d=" M 259.01 67.63 C 265.23 61.57 271.12 55.09 277.59 49.34 C 272.62 58.44 267.28 67.43 261.98 76.37 C 261.67 73.27 260.86 70.18 259.01 67.63 Z" />
<path fill="#6cc4bf" opacity="1.00" d=" M 99.58 72.62 C 113.03 80.00 126.20 88.00 139.54 95.63 C 138.14 102.29 143.83 107.95 141.77 114.52 L 141.07 114.29 C 128.51 101.73 115.91 89.21 103.32 76.69 C 102.01 75.39 100.47 74.27 99.58 72.62 Z" />
<path fill="#6cc4bf" opacity="1.00" d=" M 299.49 73.35 C 299.89 73.27 300.68 73.10 301.08 73.02 C 287.18 86.66 273.42 100.45 259.66 114.24 C 259.31 112.31 259.10 110.33 259.33 108.38 C 261.29 105.73 262.35 102.61 262.98 99.41 C 266.61 97.84 269.51 94.62 269.80 90.55 C 279.68 84.79 289.67 79.21 299.49 73.35 Z" />
<path fill="#6cc4bf" opacity="1.00" d=" M 82.90 101.05 C 102.30 106.46 121.78 111.56 141.18 116.92 C 139.39 121.85 140.47 127.21 142.46 131.89 C 140.10 137.12 140.04 143.15 141.14 148.69 C 142.32 152.17 143.13 155.77 143.04 159.47 C 137.45 158.70 131.53 161.32 129.00 166.51 C 110.58 166.67 92.15 166.58 73.74 166.65 C 75.69 165.69 77.85 165.30 79.95 164.79 C 98.21 160.01 116.42 155.02 134.70 150.36 C 134.77 150.15 134.91 149.72 134.97 149.51 C 117.92 145.28 101.00 140.53 84.00 136.09 C 80.83 134.99 77.30 134.90 74.35 133.21 C 95.40 133.16 116.46 133.29 137.52 133.35 C 136.77 132.05 135.23 131.71 134.07 130.93 C 118.63 122.05 103.19 113.18 87.74 104.31 C 86.11 103.27 84.05 102.71 82.90 101.05 Z" />
<path fill="#6cc4bf" opacity="1.00" d=" M 260.22 116.76 C 279.43 111.40 298.74 106.36 318.00 101.21 C 300.06 111.73 282.04 122.15 263.90 132.31 L 262.84 133.47 C 284.01 133.19 305.19 133.35 326.36 133.34 C 324.37 134.32 322.14 134.61 320.03 135.20 C 301.73 140.03 283.48 145.05 265.14 149.71 C 265.22 149.86 265.38 150.15 265.45 150.29 C 285.30 155.39 305.05 160.86 324.90 165.97 C 325.29 166.15 326.07 166.50 326.46 166.68 C 308.17 166.78 289.86 166.52 271.56 166.67 C 269.25 161.66 263.70 158.93 258.32 159.35 C 258.46 156.93 258.60 154.48 259.27 152.15 C 261.54 145.69 261.70 138.27 259.02 131.91 C 260.96 127.14 262.05 121.75 260.22 116.76 Z" />
<path fill="#6cc4bf" opacity="1.00" d=" M 155.35 113.10 C 155.66 113.13 156.29 113.20 156.60 113.23 C 156.88 122.81 156.49 132.40 156.72 141.98 C 156.30 144.01 155.30 146.16 157.45 147.65 C 155.10 147.86 154.27 150.17 152.49 151.20 C 152.54 143.15 152.57 135.09 152.66 127.03 C 152.38 122.37 151.50 116.63 155.35 113.10 Z" />
<path fill="#6cc4bf" opacity="1.00" d=" M 245.29 112.60 C 250.04 115.70 249.11 122.12 248.78 126.99 C 248.95 135.28 248.70 143.59 249.04 151.87 C 247.72 150.04 246.26 147.99 243.83 147.67 C 244.22 147.24 244.98 146.39 245.37 145.96 C 245.34 144.97 245.26 143.98 245.10 143.00 C 244.11 137.40 244.73 131.68 244.66 126.04 C 245.62 121.62 245.38 117.09 245.29 112.60 Z" />
<path fill="#6cc4bf" opacity="1.00" d=" M 240.36 175.33 C 243.79 170.02 246.18 164.14 248.83 158.43 C 248.62 165.64 248.70 172.85 248.52 180.06 C 247.85 188.51 240.67 195.67 232.31 196.73 C 233.84 194.85 234.72 192.56 234.18 190.13 L 234.56 190.95 C 241.41 189.18 245.11 180.71 244.42 173.95 C 242.24 176.50 240.40 179.64 237.20 181.05 C 231.05 184.28 223.86 181.59 217.37 183.12 C 216.52 182.18 215.72 181.16 214.89 180.22 C 219.56 180.93 224.32 180.49 229.04 180.54 C 233.33 180.61 237.90 179.04 240.36 175.33 Z" />
<path fill="#6cc4bf" opacity="1.00" d=" M 152.57 159.35 L 153.53 160.01 C 155.14 164.89 157.72 169.38 160.14 173.90 C 162.21 177.92 166.54 180.41 171.02 180.47 C 176.14 180.59 181.30 180.84 186.39 180.30 C 185.73 181.02 185.26 182.12 184.35 182.52 C 178.97 182.72 173.55 182.86 168.18 182.43 C 163.58 181.80 160.38 178.29 157.52 174.98 C 157.17 180.58 159.68 186.50 164.39 189.69 C 165.22 190.33 166.00 191.03 166.74 191.79 C 167.59 193.39 167.73 195.37 169.20 196.70 C 160.75 195.75 153.64 188.50 152.87 180.04 C 152.70 173.14 152.92 166.24 152.57 159.35 Z" />
<path fill="#6cc4bf" opacity="1.00" d=" M 84.30 197.42 C 98.95 189.20 113.41 180.64 128.06 172.43 C 128.68 178.21 133.86 182.71 139.55 183.14 C 137.80 184.10 135.79 184.36 133.91 184.94 C 117.03 189.42 100.19 194.16 83.30 198.51 L 84.30 197.42 Z" />
<path fill="#6cc4bf" opacity="1.00" d=" M 272.42 172.60 C 286.53 180.21 300.33 188.64 314.38 196.47 C 315.67 197.18 317.00 197.86 318.11 198.86 C 298.93 193.63 279.62 188.77 260.57 183.12 C 266.35 182.93 271.74 178.44 272.42 172.60 Z" />
<path fill="#6cc4bf" opacity="1.00" d=" M 105.20 221.18 C 117.58 209.10 129.60 196.64 142.12 184.71 C 139.95 190.94 138.43 197.55 139.59 204.17 C 126.09 212.08 112.47 219.78 99.03 227.79 C 100.66 225.23 103.15 223.39 105.20 221.18 Z" />
<path fill="#6cc4bf" opacity="1.00" d=" M 260.92 187.39 L 261.89 188.03 C 274.99 201.07 288.11 214.10 301.17 227.18 C 300.75 227.06 299.91 226.83 299.49 226.71 C 287.80 219.69 275.88 213.06 264.18 206.07 C 265.98 199.63 263.94 193.09 260.92 187.39 Z" />
<path fill="#6cc4bf" opacity="1.00" d=" M 122.33 250.87 C 129.78 239.03 136.34 226.66 143.64 214.73 C 145.71 217.72 148.26 220.38 151.18 222.56 C 142.31 231.56 133.30 240.43 124.46 249.46 C 123.84 250.02 123.25 250.83 122.33 250.87 Z" />
<path fill="#6cc4bf" opacity="1.00" d=" M 258.36 217.54 C 264.99 228.42 271.40 239.53 277.57 250.66 C 275.59 249.59 274.32 247.67 272.74 246.14 C 265.93 239.33 259.12 232.53 252.38 225.66 C 254.65 223.17 256.69 220.47 258.36 217.54 Z" />
<path fill="#6cc4bf" opacity="1.00" d=" M 162.02 228.60 C 164.95 230.56 166.67 234.11 169.94 235.82 C 163.64 246.53 157.69 257.46 151.24 268.07 C 154.79 254.91 158.19 241.68 162.02 228.60 Z" />
<path fill="#6cc4bf" opacity="1.00" d=" M 230.19 235.23 C 232.99 233.48 236.26 232.76 239.42 231.92 C 242.73 243.65 245.75 255.46 249.04 267.19 C 247.52 266.21 246.97 264.38 246.06 262.92 C 240.81 253.67 235.46 244.47 230.19 235.23 Z" />
<path fill="#6cc4bf" opacity="1.00" d=" M 183.57 238.92 C 185.72 240.63 188.19 242.04 191.06 241.79 C 189.51 242.79 188.18 244.07 187.41 245.78 C 188.32 245.44 190.14 244.76 191.05 244.42 L 192.14 244.68 C 189.91 252.91 187.75 261.15 185.55 269.38 C 184.90 271.63 184.72 274.09 183.45 276.12 C 183.48 263.72 183.69 251.32 183.57 238.92 Z" />
<path fill="#6cc4bf" opacity="1.00" d=" M 208.37 244.88 C 211.53 245.31 214.82 244.27 216.81 241.70 C 216.90 253.06 217.06 264.48 216.78 275.82 C 213.60 265.65 211.28 255.16 208.37 244.88 Z" />
</g>
<g id="#304242ff">
<path fill="#304242" opacity="1.00" d=" M 243.00 55.04 C 245.00 54.54 246.68 53.34 248.32 52.14 C 248.55 54.89 248.41 57.80 246.79 60.17 C 249.00 58.85 251.58 58.59 254.08 58.37 C 253.17 59.83 251.64 60.87 251.02 62.51 C 254.11 63.40 257.03 65.04 259.01 67.63 C 260.86 70.18 261.67 73.27 261.98 76.37 L 262.08 76.88 C 266.06 80.41 269.58 85.02 269.80 90.55 C 269.51 94.62 266.61 97.84 262.98 99.41 C 262.35 102.61 261.29 105.73 259.33 108.38 C 259.10 110.33 259.31 112.31 259.66 114.24 C 259.80 114.87 260.08 116.13 260.22 116.76 C 262.05 121.75 260.96 127.14 259.02 131.91 C 261.70 138.27 261.54 145.69 259.27 152.15 C 258.60 154.48 258.46 156.93 258.32 159.35 C 263.70 158.93 269.25 161.66 271.56 166.67 C 272.26 168.55 272.65 170.59 272.42 172.60 C 271.74 178.44 266.35 182.93 260.57 183.12 L 259.70 183.26 C 259.90 184.69 260.38 186.05 260.92 187.39 C 263.94 193.09 265.98 199.63 264.18 206.07 C 263.66 208.02 262.87 209.98 261.45 211.46 C 259.68 213.04 259.62 215.62 258.36 217.54 C 256.69 220.47 254.65 223.17 252.38 225.66 C 248.99 229.26 244.07 230.75 239.42 231.92 C 236.26 232.76 232.99 233.48 230.19 235.23 C 227.75 236.78 226.70 239.73 224.24 241.26 C 222.36 242.70 219.98 243.21 217.65 243.26 C 218.13 241.90 218.66 240.55 218.84 239.12 C 218.08 239.91 217.41 240.78 216.81 241.70 C 214.82 244.27 211.53 245.31 208.37 244.88 C 205.72 244.56 203.53 246.22 201.51 247.66 C 201.79 246.75 202.34 244.93 202.62 244.02 C 199.39 245.78 195.57 246.09 192.14 244.68 L 191.05 244.42 C 190.14 244.76 188.32 245.44 187.41 245.78 C 188.18 244.07 189.51 242.79 191.06 241.79 C 188.19 242.04 185.72 240.63 183.57 238.92 C 178.85 239.53 173.97 238.33 169.94 235.82 C 166.67 234.11 164.95 230.56 162.02 228.60 C 158.17 227.05 154.49 225.07 151.18 222.56 C 148.26 220.38 145.71 217.72 143.64 214.73 C 141.54 211.56 140.15 207.92 139.59 204.17 C 138.43 197.55 139.95 190.94 142.12 184.71 C 142.21 184.28 142.41 183.43 142.51 183.01 C 141.77 183.04 140.29 183.10 139.55 183.14 C 133.86 182.71 128.68 178.21 128.06 172.43 C 127.97 170.42 128.23 168.38 129.00 166.51 C 131.53 161.32 137.45 158.70 143.04 159.47 C 143.13 155.77 142.32 152.17 141.14 148.69 C 140.04 143.15 140.10 137.12 142.46 131.89 C 140.47 127.21 139.39 121.85 141.18 116.92 C 141.40 116.13 141.60 115.33 141.77 114.52 C 143.83 107.95 138.14 102.29 139.54 95.63 C 139.89 93.17 140.87 90.86 142.16 88.76 C 143.17 90.92 143.78 93.42 145.74 94.98 C 145.20 92.45 144.94 89.87 145.10 87.29 C 145.47 83.17 147.01 79.20 149.47 75.89 C 152.38 72.01 156.36 68.96 160.86 67.16 C 163.88 65.91 167.06 65.15 170.25 64.48 C 174.69 63.63 179.19 63.09 183.64 62.31 C 186.91 61.72 190.17 60.97 193.29 59.81 C 197.23 58.68 200.23 55.72 203.69 53.88 C 203.83 55.79 203.65 57.67 203.15 59.52 C 204.69 58.16 206.25 56.73 208.20 55.96 C 210.95 54.76 213.95 54.37 216.94 54.41 C 223.14 54.66 229.26 55.90 235.48 55.97 C 238.00 55.99 240.57 55.82 243.00 55.04 M 156.69 112.03 L 156.60 113.23 C 156.29 113.20 155.66 113.13 155.35 113.10 C 151.50 116.63 152.38 122.37 152.66 127.03 C 152.57 135.09 152.54 143.15 152.49 151.20 C 154.27 150.17 155.10 147.86 157.45 147.65 C 155.30 146.16 156.30 144.01 156.72 141.98 C 160.16 137.28 165.95 135.27 171.64 136.14 C 170.28 134.79 171.06 133.16 172.83 133.16 C 179.20 133.63 185.37 135.89 191.00 138.82 C 193.26 140.10 196.22 141.98 195.89 144.97 C 196.22 146.61 194.04 147.07 193.96 148.51 C 198.23 150.75 203.20 150.69 207.37 148.24 C 205.26 146.47 204.75 143.07 207.09 141.13 C 212.75 136.69 219.92 134.54 226.91 133.24 C 228.87 132.67 231.71 133.79 229.92 136.12 C 235.83 135.25 242.21 137.52 245.10 143.00 C 245.26 143.98 245.34 144.97 245.37 145.96 C 244.98 146.39 244.22 147.24 243.83 147.67 C 246.26 147.99 247.72 150.04 249.04 151.87 C 248.70 143.59 248.95 135.28 248.78 126.99 C 249.11 122.12 250.04 115.70 245.29 112.60 L 244.55 112.59 C 241.43 115.67 236.40 116.50 232.59 114.23 C 229.43 117.46 224.93 118.88 220.53 119.29 C 220.70 118.70 221.04 117.51 221.21 116.92 C 214.65 119.91 207.40 121.52 200.19 121.12 C 200.60 120.43 201.41 119.05 201.82 118.35 C 197.31 120.73 192.03 120.84 187.13 119.83 C 187.87 118.76 188.72 117.77 189.76 116.98 C 180.70 118.70 170.94 118.33 162.37 114.70 C 160.34 114.05 158.88 112.09 156.69 112.03 M 159.31 151.43 C 157.37 151.84 155.78 153.95 156.50 155.94 C 158.41 161.55 161.23 166.81 164.05 172.02 C 165.58 174.87 168.84 176.32 171.99 176.20 C 176.62 176.11 181.27 176.36 185.90 176.07 C 191.49 174.60 192.98 168.47 194.75 163.75 C 195.81 160.07 196.62 154.61 192.46 152.56 C 187.24 150.59 181.54 151.28 176.09 151.09 C 170.50 151.17 164.87 151.02 159.31 151.43 M 216.22 151.17 C 213.09 151.63 209.27 151.42 207.05 154.06 C 204.46 158.02 206.42 162.91 207.88 166.91 C 209.23 170.81 211.44 175.30 215.92 176.16 C 220.62 176.23 225.31 176.19 230.01 176.18 C 233.13 176.17 236.28 174.50 237.67 171.64 C 240.38 166.57 243.02 161.43 244.92 156.00 C 245.71 153.45 243.39 151.22 240.94 151.25 C 232.70 151.18 224.46 150.98 216.22 151.17 M 240.36 175.33 C 237.90 179.04 233.33 180.61 229.04 180.54 C 224.32 180.49 219.56 180.93 214.89 180.22 C 215.72 181.16 216.52 182.18 217.37 183.12 C 219.26 185.99 220.85 190.46 224.98 190.39 C 228.32 190.71 230.64 188.21 232.45 185.84 C 233.13 187.22 233.84 188.60 234.18 190.13 C 234.72 192.56 233.84 194.85 232.31 196.73 C 240.67 195.67 247.85 188.51 248.52 180.06 C 248.70 172.85 248.62 165.64 248.83 158.43 C 246.18 164.14 243.79 170.02 240.36 175.33 M 152.57 159.35 C 152.92 166.24 152.70 173.14 152.87 180.04 C 153.64 188.50 160.75 195.75 169.20 196.70 C 167.73 195.37 167.59 193.39 166.74 191.79 C 167.62 189.89 167.54 187.17 169.38 185.90 C 170.88 189.44 175.27 191.37 178.88 189.91 C 181.54 188.20 182.80 185.14 184.35 182.52 C 185.26 182.12 185.73 181.02 186.39 180.30 C 181.30 180.84 176.14 180.59 171.02 180.47 C 166.54 180.41 162.21 177.92 160.14 173.90 C 157.72 169.38 155.14 164.89 153.53 160.01 L 152.57 159.35 M 132.13 173.00 C 133.60 178.02 139.30 179.63 143.97 178.54 C 142.33 176.37 142.46 173.83 142.65 171.18 C 140.29 170.98 140.21 174.44 137.99 174.11 C 136.99 172.13 139.21 170.26 140.61 169.28 C 138.74 169.54 136.88 169.70 135.03 169.77 C 135.04 169.40 135.07 168.67 135.08 168.30 C 137.87 166.46 141.58 167.12 143.94 169.35 C 144.39 167.72 145.03 166.03 144.61 164.32 C 138.95 160.85 130.42 166.26 132.13 173.00 M 199.50 163.46 C 197.37 168.14 196.38 173.62 192.42 177.24 C 195.59 176.59 198.83 178.11 200.72 180.66 C 202.58 178.13 205.84 176.58 208.99 177.24 C 204.97 173.52 203.95 167.92 201.81 163.11 L 200.92 162.61 C 200.57 162.82 199.86 163.25 199.50 163.46 M 256.03 164.19 C 255.58 165.77 255.73 168.14 256.89 169.27 C 259.06 166.89 263.66 166.26 265.76 168.94 C 264.81 171.24 262.00 168.69 260.13 169.17 C 261.26 170.44 263.08 171.78 262.76 173.67 C 260.48 175.45 260.40 170.51 257.76 171.30 C 257.69 173.77 257.87 176.30 256.93 178.66 C 258.93 178.71 260.93 178.78 262.92 178.54 C 266.14 177.19 269.31 173.93 268.49 170.12 C 267.61 164.64 260.83 161.64 256.03 164.19 M 187.26 194.94 C 186.61 200.20 195.18 201.76 196.93 196.97 C 196.90 196.30 196.85 194.98 196.83 194.31 C 194.95 193.44 192.71 193.59 190.80 192.96 C 190.96 192.61 191.26 191.91 191.41 191.56 C 195.08 190.14 198.35 193.83 202.01 192.97 C 204.09 192.59 205.93 191.28 208.08 191.25 C 209.25 191.25 210.98 192.18 209.90 193.52 C 207.75 192.82 206.16 194.20 204.21 194.50 C 204.25 196.38 204.84 198.53 206.72 199.35 C 210.04 201.22 215.51 198.20 214.01 194.08 C 212.17 188.30 205.26 186.96 199.96 187.16 C 194.83 187.12 188.27 189.17 187.26 194.94 Z" />
<path fill="#304242" opacity="1.00" d=" M 169.40 158.45 C 173.13 158.01 176.95 158.47 180.72 158.28 C 183.77 159.24 180.80 162.31 178.64 161.00 C 179.27 163.26 177.66 165.91 175.18 165.76 C 172.90 165.64 171.56 163.25 172.16 161.15 C 170.34 161.87 167.19 160.35 169.40 158.45 Z" />
<path fill="#304242" opacity="1.00" d=" M 220.28 158.32 C 224.08 158.28 227.89 158.32 231.69 158.31 C 233.12 158.76 233.00 160.14 232.03 161.03 C 231.37 161.03 230.05 161.04 229.38 161.04 C 229.65 163.28 228.41 165.73 225.94 165.84 C 223.58 165.54 222.33 163.32 222.72 161.08 C 222.03 161.09 220.65 161.10 219.96 161.11 C 219.20 160.14 219.00 158.94 220.28 158.32 Z" />
</g>
<g id="#d4e2e3ff">
<path fill="#d4e2e3" opacity="1.00" d=" M 156.69 112.03 C 158.88 112.09 160.34 114.05 162.37 114.70 C 170.94 118.33 180.70 118.70 189.76 116.98 C 188.72 117.77 187.87 118.76 187.13 119.83 C 192.03 120.84 197.31 120.73 201.82 118.35 C 201.41 119.05 200.60 120.43 200.19 121.12 C 207.40 121.52 214.65 119.91 221.21 116.92 C 221.04 117.51 220.70 118.70 220.53 119.29 C 224.93 118.88 229.43 117.46 232.59 114.23 C 236.40 116.50 241.43 115.67 244.55 112.59 L 245.29 112.60 C 245.38 117.09 245.62 121.62 244.66 126.04 C 244.73 131.68 244.11 137.40 245.10 143.00 C 242.21 137.52 235.83 135.25 229.92 136.12 C 231.71 133.79 228.87 132.67 226.91 133.24 C 219.92 134.54 212.75 136.69 207.09 141.13 C 204.75 143.07 205.26 146.47 207.37 148.24 C 203.20 150.69 198.23 150.75 193.96 148.51 C 194.04 147.07 196.22 146.61 195.89 144.97 C 196.22 141.98 193.26 140.10 191.00 138.82 C 185.37 135.89 179.20 133.63 172.83 133.16 C 171.06 133.16 170.28 134.79 171.64 136.14 C 165.95 135.27 160.16 137.28 156.72 141.98 C 156.49 132.40 156.88 122.81 156.60 113.23 L 156.69 112.03 Z" />
<path fill="#d4e2e3" opacity="1.00" d=" M 159.31 151.43 C 164.87 151.02 170.50 151.17 176.09 151.09 C 181.54 151.28 187.24 150.59 192.46 152.56 C 196.62 154.61 195.81 160.07 194.75 163.75 C 192.98 168.47 191.49 174.60 185.90 176.07 C 181.27 176.36 176.62 176.11 171.99 176.20 C 168.84 176.32 165.58 174.87 164.05 172.02 C 161.23 166.81 158.41 161.55 156.50 155.94 C 155.78 153.95 157.37 151.84 159.31 151.43 M 169.40 158.45 C 167.19 160.35 170.34 161.87 172.16 161.15 C 171.56 163.25 172.90 165.64 175.18 165.76 C 177.66 165.91 179.27 163.26 178.64 161.00 C 180.80 162.31 183.77 159.24 180.72 158.28 C 176.95 158.47 173.13 158.01 169.40 158.45 Z" />
<path fill="#d4e2e3" opacity="1.00" d=" M 216.22 151.17 C 224.46 150.98 232.70 151.18 240.94 151.25 C 243.39 151.22 245.71 153.45 244.92 156.00 C 243.02 161.43 240.38 166.57 237.67 171.64 C 236.28 174.50 233.13 176.17 230.01 176.18 C 225.31 176.19 220.62 176.23 215.92 176.16 C 211.44 175.30 209.23 170.81 207.88 166.91 C 206.42 162.91 204.46 158.02 207.05 154.06 C 209.27 151.42 213.09 151.63 216.22 151.17 M 220.28 158.32 C 219.00 158.94 219.20 160.14 219.96 161.11 C 220.65 161.10 222.03 161.09 222.72 161.08 C 222.33 163.32 223.58 165.54 225.94 165.84 C 228.41 165.73 229.65 163.28 229.38 161.04 C 230.05 161.04 231.37 161.03 232.03 161.03 C 233.00 160.14 233.12 158.76 231.69 158.31 C 227.89 158.32 224.08 158.28 220.28 158.32 Z" />
<path fill="#d4e2e3" opacity="1.00" d=" M 132.13 173.00 C 130.42 166.26 138.95 160.85 144.61 164.32 C 145.03 166.03 144.39 167.72 143.94 169.35 C 141.58 167.12 137.87 166.46 135.08 168.30 C 135.07 168.67 135.04 169.40 135.03 169.77 C 136.88 169.70 138.74 169.54 140.61 169.28 C 139.21 170.26 136.99 172.13 137.99 174.11 C 140.21 174.44 140.29 170.98 142.65 171.18 C 142.46 173.83 142.33 176.37 143.97 178.54 C 139.30 179.63 133.60 178.02 132.13 173.00 Z" />
<path fill="#d4e2e3" opacity="1.00" d=" M 199.50 163.46 C 199.86 163.25 200.57 162.82 200.92 162.61 L 201.81 163.11 C 203.95 167.92 204.97 173.52 208.99 177.24 C 205.84 176.58 202.58 178.13 200.72 180.66 C 198.83 178.11 195.59 176.59 192.42 177.24 C 196.38 173.62 197.37 168.14 199.50 163.46 Z" />
<path fill="#d4e2e3" opacity="1.00" d=" M 256.03 164.19 C 260.83 161.64 267.61 164.64 268.49 170.12 C 269.31 173.93 266.14 177.19 262.92 178.54 C 260.93 178.78 258.93 178.71 256.93 178.66 C 257.87 176.30 257.69 173.77 257.76 171.30 C 260.40 170.51 260.48 175.45 262.76 173.67 C 263.08 171.78 261.26 170.44 260.13 169.17 C 262.00 168.69 264.81 171.24 265.76 168.94 C 263.66 166.26 259.06 166.89 256.89 169.27 C 255.73 168.14 255.58 165.77 256.03 164.19 Z" />
<path fill="#d4e2e3" opacity="1.00" d=" M 237.20 181.05 C 240.40 179.64 242.24 176.50 244.42 173.95 C 245.11 180.71 241.41 189.18 234.56 190.95 L 234.18 190.13 C 233.84 188.60 233.13 187.22 232.45 185.84 C 230.64 188.21 228.32 190.71 224.98 190.39 C 220.85 190.46 219.26 185.99 217.37 183.12 C 223.86 181.59 231.05 184.28 237.20 181.05 Z" />
<path fill="#d4e2e3" opacity="1.00" d=" M 157.52 174.98 C 160.38 178.29 163.58 181.80 168.18 182.43 C 173.55 182.86 178.97 182.72 184.35 182.52 C 182.80 185.14 181.54 188.20 178.88 189.91 C 175.27 191.37 170.88 189.44 169.38 185.90 C 167.54 187.17 167.62 189.89 166.74 191.79 C 166.00 191.03 165.22 190.33 164.39 189.69 C 159.68 186.50 157.17 180.58 157.52 174.98 Z" />
<path fill="#d4e2e3" opacity="1.00" d=" M 187.26 194.94 C 188.27 189.17 194.83 187.12 199.96 187.16 C 205.26 186.96 212.17 188.30 214.01 194.08 C 215.51 198.20 210.04 201.22 206.72 199.35 C 204.84 198.53 204.25 196.38 204.21 194.50 C 206.16 194.20 207.75 192.82 209.90 193.52 C 210.98 192.18 209.25 191.25 208.08 191.25 C 205.93 191.28 204.09 192.59 202.01 192.97 C 198.35 193.83 195.08 190.14 191.41 191.56 C 191.26 191.91 190.96 192.61 190.80 192.96 C 192.71 193.59 194.95 193.44 196.83 194.31 C 196.85 194.98 196.90 196.30 196.93 196.97 C 195.18 201.76 186.61 200.20 187.26 194.94 Z" />
</g>
</svg>
